<svg width="512" height="512" viewBox="0 0 512 512" fill="none" xmlns="http://www.w3.org/2000/svg" xmlns:xlink="http://www.w3.org/1999/xlink" class=""><rect id="r4" width="512" height="512" x="0" y="0" rx="" fill="url(#r5)" stroke="#FFFFFF" stroke-width="0" stroke-opacity="100%" paint-order="stroke"></rect><clipPath id="clip"><use xlink:href="#r4"></use></clipPath><defs><linearGradient id="r5" gradientUnits="userSpaceOnUse" gradientTransform="rotate(45)" style="transform-origin: center center;"><stop stop-color="#91EAE4"></stop><stop offset="1" stop-color="#7F7FD5"></stop></linearGradient><radialGradient id="r6" cx="0" cy="0" r="1" gradientUnits="userSpaceOnUse" gradientTransform="translate(256) rotate(90) scale(512)"><stop stop-color="white"></stop><stop offset="1" stop-color="white" stop-opacity="0"></stop></radialGradient></defs><svg xmlns="http://www.w3.org/2000/svg" width="352" height="352" viewBox="0 0 32 32" x="80" y="80" alignment-baseline="middle" style="color: rgb(255, 255, 255);">
    <path fill="#fff" d="m22.505 11.637l-5.989-3.5a1 1 0 0 0-1.008-.001l-6.011 3.5A1 1 0 0 0 9 12.5v7a1 1 0 0 0 .497.864l6.011 3.5A.96.96 0 0 0 16 24c.174 0 .36-.045.516-.137l5.989-3.5A1 1 0 0 0 23 19.5v-7a1 1 0 0 0-.495-.863m-6.494-1.48l4.007 2.343l-4.007 2.342l-4.023-2.342zM11 14.24l4 2.33v4.685l-4-2.33zm6 7.025v-4.683l4-2.338v4.683z"></path>
    <path fill="#fff" d="M16 1a1 1 0 0 0-.504.136l-12 7A1 1 0 0 0 3 9v14a1 1 0 0 0 .496.864l12 7a1 1 0 0 0 1.008 0l11-6.417l-1.008-1.727L16 28.842L5 22.426V9.575l11-6.417l11 6.416V17h2V9a1 1 0 0 0-.496-.864l-12-7A1 1 0 0 0 16 1"></path>
</svg></svg>